<?xml version="1.0" encoding="UTF-8"?>
<svg width="350px" height="406px" viewBox="0 0 350 406" version="1.1" xmlns="http://www.w3.org/2000/svg" xmlns:xlink="http://www.w3.org/1999/xlink">
    <!-- Generator: Sketch 55.2 (78181) - https://sketchapp.com -->
    <title>integration-icon</title>
    <desc>Created with Sketch.</desc>
    <defs>
        <polygon id="path-1" points="0 0 350 0 350 405.68142 0 405.68142"></polygon>
    </defs>
    <g id="Page-1" stroke="none" stroke-width="1" fill="none" fill-rule="evenodd">
        <g id="integration-icon">
            <g id="Group-3">
                <g id="Fill-1-Clipped">
                    <mask id="mask-2" fill="white">
                        <use xlink:href="#path-1"></use>
                    </mask>
                    <g id="path-1"></g>
                    <path d="M339.810227,298.796193 L175,394.708125 L10.1897727,298.796193 L10.1897727,106.880852 L175,10.9689205 L339.810227,106.880852 L339.810227,298.796193 Z M347.470455,99.570625 L177.565341,0.691647727 C175.990341,-0.231079545 174.009659,-0.231079545 172.434659,0.691647727 L2.52954545,99.570625 C0.9625,100.48142 0,102.151875 0,103.957557 L0,301.715511 C0,303.521193 0.9625,305.195625 2.52954545,306.10642 L172.434659,404.985398 C173.222159,405.446761 174.113068,405.68142 175,405.68142 C175.886932,405.68142 176.777841,405.446761 177.565341,404.985398 L347.470455,306.10642 C349.0375,305.195625 350,303.521193 350,301.715511 L350,103.957557 C350,102.151875 349.0375,100.48142 347.470455,99.570625 L347.470455,99.570625 Z" id="Fill-1" fill="#005DFF" fill-rule="nonzero" mask="url(#mask-2)"></path>
                </g>
            </g>
            <path d="M245.794659,264.427784 C250.790114,264.427784 254.858864,268.484602 254.858864,273.464148 C254.858864,278.451648 250.790114,282.504489 245.794659,282.504489 C240.795227,282.504489 236.730455,278.451648 236.730455,273.464148 C236.730455,268.484602 240.795227,264.427784 245.794659,264.427784 M160.0725,202.835739 C160.0725,194.626648 166.774205,187.94483 174.999205,187.94483 C183.228182,187.94483 189.925909,194.626648 189.925909,202.835739 C189.925909,211.04483 183.228182,217.726648 174.999205,217.726648 C166.774205,217.726648 160.0725,211.04483 160.0725,202.835739 M104.207727,141.251648 C99.2082955,141.251648 95.1435227,137.19483 95.1435227,132.20733 C95.1435227,127.227784 99.2082955,123.174943 104.207727,123.174943 C109.203182,123.174943 113.271932,127.227784 113.271932,132.20733 C113.271932,137.19483 109.203182,141.251648 104.207727,141.251648 M245.794659,292.678352 C256.413977,292.678352 265.048636,284.055625 265.048636,273.464148 C265.048636,262.868693 256.413977,254.25392 245.794659,254.25392 C242.127614,254.25392 238.727045,255.335739 235.807727,257.117557 C235.573068,256.668125 235.616818,256.123239 235.238977,255.745398 L195.971364,216.569261 C198.576477,212.615852 200.115682,207.910739 200.115682,202.835739 C200.115682,189.02267 188.848068,177.77892 174.999205,177.77892 C169.91625,177.77892 165.195227,179.318125 161.233864,181.915284 L121.96625,142.739148 C121.588409,142.361307 121.043523,142.40108 120.590114,142.16642 C122.375909,139.259034 123.461705,135.870398 123.461705,132.20733 C123.461705,121.615852 114.827045,113.00108 104.207727,113.00108 C93.5884091,113.00108 84.95375,121.615852 84.95375,132.20733 C84.95375,142.802784 93.5884091,151.425511 104.207727,151.425511 C107.874773,151.425511 111.271364,150.335739 114.190682,148.55392 C114.425341,149.011307 114.381591,149.548239 114.763409,149.934034 L154.031023,189.11017 C151.425909,193.055625 149.882727,197.764716 149.882727,202.835739 C149.882727,216.656761 161.154318,227.900511 174.999205,227.900511 C180.086136,227.900511 184.807159,226.353352 188.764545,223.756193 L228.032159,262.936307 C228.413977,263.318125 228.958864,263.270398 229.412273,263.505057 C227.626477,266.420398 226.540682,269.809034 226.540682,273.464148 C226.540682,284.055625 235.175341,292.678352 245.794659,292.678352" id="Fill-4" fill="#005DFF" fill-rule="nonzero"></path>
            <path d="M100.604716,192.310682 L107.807557,185.115795 L79.489375,156.86125 C72.8950568,150.278864 69.2598295,141.524886 69.251875,132.210114 C69.251875,112.98 84.9342614,97.3373864 104.208125,97.3373864 C113.546761,97.3453409 122.324602,100.972614 128.930852,107.558977 L199.714375,178.179432 L206.917216,170.9925 L136.141648,100.372045 C127.614375,91.8606818 116.271193,87.1714773 104.208125,87.1714773 C79.3103977,87.1714773 59.0621023,107.372045 59.0621023,132.210114 C59.0700568,144.245341 63.7632386,155.556705 72.2865341,164.052159 L100.604716,192.310682 Z" id="Fill-6" fill="#005DFF" fill-rule="nonzero"></path>
            <path d="M249.394886,213.367557 L242.192045,220.562443 L270.510227,248.813011 C277.104545,255.39142 280.739773,264.153352 280.747727,273.464148 C280.747727,292.690284 265.069318,308.336875 245.795455,308.336875 C236.452841,308.32892 227.675,304.701648 221.06875,298.111307 L150.285227,227.49483 L143.082386,234.681761 L213.857955,305.302216 C222.385227,313.81358 233.724432,318.502784 245.795455,318.502784 C270.689205,318.502784 290.9375,298.298239 290.9375,273.464148 C290.929545,261.42892 286.236364,250.121534 277.713068,241.618125 L249.394886,213.367557 Z" id="Fill-8" fill="#005DFF" fill-rule="nonzero"></path>
            <path d="M128.921307,298.120455 C122.326989,304.698864 113.54517,308.330114 104.206534,308.334091 C84.9326705,308.334091 69.2542614,292.691477 69.2542614,273.461364 C69.2542614,264.146591 72.8974432,255.392614 79.4957386,248.798295 L136.128125,192.305114 L128.921307,185.118182 L72.2928977,241.611364 C63.7616477,250.114773 59.0605114,261.426136 59.0605114,273.461364 C59.0605114,298.299432 79.3088068,318.5 104.206534,318.5 C116.269602,318.496023 127.608807,313.810795 136.128125,305.315341 L164.44233,277.064773 L157.239489,269.869886 L128.921307,298.120455 Z" id="Fill-10" fill="#005DFF" fill-rule="nonzero"></path>
            <path d="M221.078295,107.55142 C227.680568,100.973011 236.454432,97.3417614 245.793068,97.3377841 C265.070909,97.3377841 280.745341,112.980398 280.745341,132.210511 C280.741364,141.533239 277.102159,150.291193 270.503864,156.87358 L213.871477,213.362784 L221.078295,220.553693 L277.706705,164.068466 C286.23,155.56108 290.931136,144.249716 290.939091,132.210511 C290.939091,107.372443 270.690795,87.171875 245.793068,87.171875 C233.73,87.1758523 222.390795,91.8610795 213.871477,100.364489 L185.557273,128.615057 L192.760114,135.801989 L221.078295,107.55142 Z" id="Fill-12" fill="#005DFF" fill-rule="nonzero"></path>
        </g>
    </g>
</svg>